<svg xmlns="http://www.w3.org/2000/svg" width="362" height="221" viewBox="0 0 362 221"><g transform="translate(-510 -37)"><rect width="362" height="23" transform="translate(510 37)" fill="#9bae07"/><rect width="63" height="198" transform="translate(510 60)" fill="#f0f0f0"/><g transform="translate(581 68)" fill="#fff" stroke="#ddd" stroke-width="1"><rect width="284" height="68" stroke="none"/><rect x="0.5" y="0.5" width="283" height="67" fill="none"/></g><g transform="translate(581 144)" fill="#fff" stroke="#ddd" stroke-width="1"><rect width="138" height="97" stroke="none"/><rect x="0.5" y="0.5" width="137" height="96" fill="none"/></g><g transform="translate(727 144)" fill="#fff" stroke="#ddd" stroke-width="1"><rect width="138" height="97" stroke="none"/><rect x="0.5" y="0.5" width="137" height="96" fill="none"/></g><rect width="36" height="13" rx="4" transform="translate(823 117)" fill="#4a80b8"/><g transform="translate(823 221)" fill="#f0f0f0" stroke="#ddd" stroke-width="1"><rect width="36" height="13" rx="4" stroke="none"/><rect x="0.5" y="0.5" width="35" height="12" rx="3.5" fill="none"/></g><g transform="translate(778 221)" fill="#f0f0f0" stroke="#ddd" stroke-width="1"><rect width="36" height="13" rx="4" stroke="none"/><rect x="0.5" y="0.5" width="35" height="12" rx="3.5" fill="none"/></g><g transform="translate(673 221)" fill="#f0f0f0" stroke="#ddd" stroke-width="1"><rect width="36" height="13" rx="4" stroke="none"/><rect x="0.5" y="0.5" width="35" height="12" rx="3.5" fill="none"/></g></g></svg>