<svg xmlns="http://www.w3.org/2000/svg" width="362" height="160" viewBox="0 0 362 160"><g transform="translate(-508 -329)"><g transform="translate(508 329)" fill="#fff" stroke="#ddd" stroke-width="2"><rect width="362" height="160" rx="4" stroke="none"/><rect x="1" y="1" width="360" height="158" rx="3" fill="none"/></g><rect width="55.385" height="20" rx="4" transform="translate(802 459)" fill="#f74c3f"/><g transform="translate(732 459)" fill="#f0f0f0" stroke="#ddd" stroke-width="1"><rect width="55.385" height="20" rx="4" stroke="none"/><rect x="0.5" y="0.5" width="54.385" height="19" rx="3.5" fill="none"/></g><line x2="252" transform="translate(569.5 393.5)" fill="none" stroke="#ddd" stroke-width="10"/><line x2="209" transform="translate(569.5 413.5)" fill="none" stroke="#ddd" stroke-width="10"/><path d="M24.718,19.1a2.085,2.085,0,0,1-1.8,3.124H2.085A2.085,2.085,0,0,1,.281,19.1L10.7,1.041a2.085,2.085,0,0,1,3.609,0L24.718,19.1ZM12.5,15.365a2,2,0,1,0,2,2A2,2,0,0,0,12.5,15.365ZM10.6,8.188l.322,5.9a.521.521,0,0,0,.52.492h2.107a.521.521,0,0,0,.52-.492l.322-5.9a.521.521,0,0,0-.52-.549H11.124a.521.521,0,0,0-.52.549Z" transform="translate(529 380)" fill="#f74c3f"/></g></svg>